<svg xmlns="http://www.w3.org/2000/svg" version="1.1" xmlns:xlink="http://www.w3.org/1999/xlink" xmlns:svgjs="http://svgjs.dev/svgjs" width="1000" height="1000" viewBox="0 0 1000 1000"><rect width="1000" height="1000" fill="#ffffff"></rect><g transform="matrix(0.7,0,0,0.7,149.57575757575756,282.1265587044535)"><svg viewBox="0 0 396 247" data-background-color="#ffffff" preserveAspectRatio="xMidYMid meet" height="623" width="1000" xmlns="http://www.w3.org/2000/svg" xmlns:xlink="http://www.w3.org/1999/xlink"><g id="tight-bounds" transform="matrix(1,0,0,1,0.2400000000000091,-0.09999999999999432)"><svg viewBox="0 0 395.52 247.2" height="247.2" width="395.52"><g><svg></svg></g><g><svg viewBox="0 0 395.52 247.2" height="247.2" width="395.52"><g transform="matrix(1,0,0,1,75.54432,78.99342318428198)"><svg viewBox="0 0 244.43135999999998 89.21315363143603" height="89.21315363143603" width="244.43135999999998"><g><svg viewBox="0 0 244.43135999999998 89.21315363143603" height="89.21315363143603" width="244.43135999999998"><g><svg viewBox="0 0 244.43136 89.21315363143604" height="89.21315363143603" width="244.43135999999998"><g><svg viewBox="0 0 244.43136 89.21315363143604" height="89.21315363143604" width="244.43136"><g id="textblocktransform"><svg viewBox="0 0 244.43136 89.21315363143604" height="89.21315363143604" width="244.43136" id="textblock"><g><svg viewBox="0 0 244.43136 89.21315363143604" height="89.21315363143604" width="244.43136"><g transform="matrix(1,0,0,1,0,0)"><svg width="244.43136" viewBox="3.5900001525878906 -33.75 93.70068359375 34.21083068847656" height="89.21315363143604" data-palette-color="#000000"><path d="M33.22 0L33.22-14.59Q33.22-17.47 33.54-23.91L33.54-23.91 33.34-23.91 26.64 0 18.07 0 11.27-23.96 11.07-23.96Q11.55-18.02 11.55-14.43L11.55-14.43 11.55 0 3.59 0 3.59-33.27 15.57-33.27 22.5-9.66 22.67-9.66 29.47-33.27 41.48-33.27 41.48 0 33.22 0ZM47.09-1.64L47.09-9.66Q49.77-8.27 52.5-7.56 55.23-6.85 57.34-6.85 59.45-6.85 60.42-7.52 61.4-8.19 61.4-9.33L61.4-9.33Q61.4-10.01 61.02-10.52L61.02-10.52Q60.61-11.02 59.87-11.51 59.12-12.01 55.58-13.62 52.05-15.24 50.5-16.56L50.5-16.56Q47.32-19.29 47.32-23.94 47.32-28.59 50.65-31.17L50.65-31.17Q54.02-33.75 59.86-33.75L59.86-33.75Q64.99-33.75 70.4-31.34L70.4-31.34 67.64-24.42Q62.99-26.54 59.58-26.54L59.58-26.54Q57.91-26.54 57.08-25.96 56.24-25.38 56.24-24.41 56.24-23.43 57.26-22.65 58.29-21.87 62.66-19.88 67.03-17.9 68.7-15.67L68.7-15.67Q70.4-13.5 70.4-10.11L70.4-10.11Q70.45-5.41 66.85-2.45 63.24 0.51 57.35 0.46L57.35 0.46Q53.99 0.46 51.7-0.04 49.42-0.53 47.09-1.64L47.09-1.64ZM73.98-1.64L73.98-9.66Q76.66-8.27 79.39-7.56 82.12-6.85 84.23-6.85 86.34-6.85 87.32-7.52 88.29-8.19 88.29-9.33L88.29-9.33Q88.29-10.01 87.91-10.52L87.91-10.52Q87.51-11.02 86.76-11.51 86.02-12.01 82.48-13.62 78.94-15.24 77.4-16.56L77.4-16.56Q74.21-19.29 74.21-23.94 74.21-28.59 77.55-31.17L77.55-31.17Q80.91-33.75 86.75-33.75L86.75-33.75Q91.88-33.75 97.29-31.34L97.29-31.34 94.53-24.42Q89.88-26.54 86.47-26.54L86.47-26.54Q84.8-26.54 83.97-25.96 83.13-25.38 83.13-24.41 83.13-23.43 84.16-22.65 85.18-21.87 89.56-19.88 93.93-17.9 95.6-15.67L95.6-15.67Q97.29-13.5 97.29-10.11L97.29-10.11Q97.34-5.41 93.74-2.45 90.14 0.51 84.25 0.46L84.25 0.46Q80.88 0.46 78.6-0.04 76.31-0.53 73.98-1.64L73.98-1.64Z" opacity="1" transform="matrix(1,0,0,1,0,0)" fill="#000000" class="wordmark-text-0" data-fill-palette-color="primary" id="text-0"></path></svg></g></svg></g></svg></g></svg></g></svg></g></svg></g></svg></g><path d="M176.398 72.993L176.398 19.54 384.518 19.54 384.518 227.66 176.398 227.66 176.398 174.207 184.443 174.207 184.443 219.615 376.473 219.615 376.473 27.585 184.443 27.585 184.443 72.993Z" fill="#000000" stroke="transparent" data-fill-palette-color="primary"></path></svg></g><defs></defs></svg><rect width="395.52" height="247.2" fill="none" stroke="none" visibility="hidden"></rect></g></svg></g></svg>