<?xml version="1.0" encoding="UTF-8" standalone="no"?>
<svg
   version="1.1"
   width="1000"
   height="1000"
   viewBox="0 0 1000 1000"
   id="svg11"
   sodipodi:docname="OG-logo-black.svg"
   inkscape:version="1.3 (0e150ed6c4, 2023-07-21)"
   xmlns:inkscape="http://www.inkscape.org/namespaces/inkscape"
   xmlns:sodipodi="http://sodipodi.sourceforge.net/DTD/sodipodi-0.dtd"
   xmlns="http://www.w3.org/2000/svg"
   xmlns:svg="http://www.w3.org/2000/svg">
  <defs
     id="defs11" />
  <sodipodi:namedview
     id="namedview11"
     pagecolor="#ffffff"
     bordercolor="#000000"
     borderopacity="0.25"
     inkscape:showpageshadow="2"
     inkscape:pageopacity="0.0"
     inkscape:pagecheckerboard="0"
     inkscape:deskcolor="#d1d1d1"
     inkscape:zoom="2.434"
     inkscape:cx="680.77239"
     inkscape:cy="506.77896"
     inkscape:window-width="2560"
     inkscape:window-height="1494"
     inkscape:window-x="-11"
     inkscape:window-y="-11"
     inkscape:window-maximized="1"
     inkscape:current-layer="svg11" />
  <g
     transform="matrix(0.7,0,0,0.7,190.24955,294.04111)"
     id="g10"
     style="stroke-width:1;stroke-dasharray:none;paint-order:stroke markers fill">
    <svg
       viewBox="0 0 396 247"
       data-background-color="#ffffff"
       preserveAspectRatio="xMidYMid"
       height="623"
       width="1000"
       version="1.1"
       id="svg10"
       style="stroke-width:0.396469;stroke-dasharray:none;paint-order:stroke markers fill">
      <g
         id="tight-bounds"
         transform="translate(0.24,-0.1)"
         style="stroke-width:0.396469;stroke-dasharray:none;paint-order:stroke markers fill">
        <svg
           viewBox="0 0 395.52 247.2"
           height="247.2"
           width="395.51999"
           version="1.1"
           id="svg9"
           style="stroke-width:0.396469;stroke-dasharray:none;paint-order:stroke markers fill">
          <g
             id="g1"
             style="stroke-width:0.396469;stroke-dasharray:none;paint-order:stroke markers fill">
            <svg
               version="1.1"
               id="svg1"
               style="stroke-width:0.396469;stroke-dasharray:none;paint-order:stroke markers fill"
               width="100%"
               height="100%"
               inkscape:label="svg1" />
          </g>
          <g
             id="g8"
             style="stroke-width:0.396469;stroke-dasharray:none;paint-order:stroke markers fill">
            <svg
               viewBox="0 0 395.52 247.2"
               height="247.2"
               width="395.51999"
               version="1.1"
               id="svg8"
               style="stroke-width:0.396469;stroke-dasharray:none;paint-order:stroke markers fill">
              <g
                 transform="translate(75.54432,78.993423)"
                 id="g7"
                 style="stroke-width:0.396469;stroke-dasharray:none;paint-order:stroke markers fill">
                <svg
                   viewBox="0 0 244.43136 89.213154"
                   height="89.21315"
                   width="244.43137"
                   version="1.1"
                   id="svg7"
                   style="stroke-width:0.396469;stroke-dasharray:none;paint-order:stroke markers fill">
                  <g
                     id="g6"
                     style="stroke-width:0.396469;stroke-dasharray:none;paint-order:stroke markers fill">
                    <svg
                       viewBox="0 0 244.43136 89.213154"
                       height="89.21315"
                       width="244.43137"
                       version="1.1"
                       id="svg6"
                       style="stroke-width:0.396469;stroke-dasharray:none;paint-order:stroke markers fill">
                      <g
                         id="g5"
                         style="stroke-width:0.396469;stroke-dasharray:none;paint-order:stroke markers fill">
                        <svg
                           viewBox="0 0 244.43136 89.213154"
                           height="89.21315"
                           width="244.43137"
                           version="1.1"
                           id="svg5"
                           style="stroke-width:0.396469;stroke-dasharray:none;paint-order:stroke markers fill">
                          <g
                             id="g4"
                             style="stroke-width:0.396469;stroke-dasharray:none;paint-order:stroke markers fill">
                            <svg
                               viewBox="0 0 244.43136 89.213154"
                               height="89.21315"
                               width="244.43137"
                               version="1.1"
                               id="svg4"
                               style="stroke-width:0.396469;stroke-dasharray:none;paint-order:stroke markers fill">
                              <g
                                 id="textblocktransform"
                                 style="stroke-width:0.396469;stroke-dasharray:none;paint-order:stroke markers fill">
                                <svg
                                   viewBox="0 0 244.43136 89.213154"
                                   height="89.21315"
                                   width="244.43137"
                                   id="textblock"
                                   version="1.1"
                                   style="stroke-width:0.396469;stroke-dasharray:none;paint-order:stroke markers fill">
                                <g
                                   id="g3"
                                   style="stroke-width:0.396469;stroke-dasharray:none;paint-order:stroke markers fill">
                                <svg
                                   viewBox="0 0 244.43136 89.213154"
                                   height="89.21315"
                                   width="244.43137"
                                   version="1.1"
                                   id="svg3"
                                   style="stroke-width:0.396469;stroke-dasharray:none;paint-order:stroke markers fill">
                                <g
                                   id="g2"
                                   style="stroke-width:0.396469;stroke-dasharray:none;paint-order:stroke markers fill">
                                <svg
                                   width="244.43137"
                                   viewBox="3.5900002 -33.75 93.700684 34.210831"
                                   height="89.21315"
                                   data-palette-color="#000000"
                                   version="1.1"
                                   id="svg2"
                                   style="stroke-width:0.152035;stroke-dasharray:none;paint-order:stroke markers fill" />
                                </g>
                                </svg>
                                </g>
                                </svg>
                              </g>
                            </svg>
                          </g>
                        </svg>
                      </g>
                    </svg>
                  </g>
                </svg>
              </g>
              <path
                 id="katakana-project"
                 style="stroke-width:0.396469;stroke-dasharray:none;paint-order:stroke markers fill"
                 d="M 176.398,72.993 V 19.54 h 208.12 v 208.12 h -208.12 v -53.453 h 8.045 v 45.408 h 192.03 V 27.585 h -192.03 v 45.408 z m -23.54427,94.01184 v -38.04701 q 0,-7.51031 0.83448,-24.30419 v 0 h -0.52155 l -17.4719,62.3512 H 113.34638 L 95.613709,104.52325 h -0.52155 q 1.251718,15.49001 1.251718,24.85182 v 0 37.62977 H 75.586221 V 80.245141 h 31.240799 l 18.07167,61.568879 h 0.44332 l 17.73267,-61.568879 h 31.31903 v 86.759699 z m 36.16943,-4.2767 v -20.91412 q 6.98876,3.62477 14.10791,5.47626 7.11914,1.8515 12.62149,1.8515 5.50234,0 8.03185,-1.74719 2.55559,-1.74718 2.55559,-4.72002 v 0 q 0,-1.77326 -0.99094,-3.10321 v 0 q -1.06917,-1.30388 -2.99891,-2.58167 -1.95581,-1.30387 -11.18723,-5.50234 -9.20534,-4.22455 -13.24734,-7.66678 v 0 q -8.29264,-7.11914 -8.29264,-19.24516 0,-12.126019 8.6838,-18.854003 v 0 q 8.7881,-6.727984 24.01734,-6.727984 v 0 q 13.37773,0 27.48564,6.284667 v 0 l -7.19738,18.0456 q -12.12602,-5.52842 -21.01843,-5.52842 v 0 q -4.35494,0 -6.51937,1.512493 -2.1905,1.512497 -2.1905,4.042007 0,2.55559 2.6599,4.58963 2.68597,2.03404 14.08182,7.22346 11.39585,5.16333 15.75079,10.97861 v 0 q 4.43317,5.6588 4.43317,14.49906 v 0 q 0.13038,12.25641 -9.2575,19.97534 -9.41396,7.71892 -24.77359,7.58854 v 0 q -8.76202,0 -14.73376,-1.30388 -5.94566,-1.27779 -12.02171,-4.17239 z m 70.12229,0 v -20.91412 q 6.98875,3.62477 14.1079,5.47626 7.11915,1.8515 12.62149,1.8515 5.50234,0 8.05793,-1.74719 2.52952,-1.74718 2.52952,-4.72002 v 0 q 0,-1.77326 -0.99095,-3.10321 v 0 q -1.04309,-1.30388 -2.9989,-2.58167 -1.92973,-1.30387 -11.16115,-5.50234 -9.23142,-4.22455 -13.24735,-7.66678 v 0 q -8.31871,-7.11914 -8.31871,-19.24516 0,-12.126019 8.70987,-18.854003 v 0 q 8.76202,-6.727984 23.99126,-6.727984 v 0 q 13.37774,0 27.48564,6.284667 v 0 l -7.19738,18.0456 Q 300.6086,97.79527 291.71619,97.79527 v 0 q -4.35493,0 -6.51936,1.512493 -2.19051,1.512497 -2.19051,4.042007 0,2.55559 2.68598,4.58963 2.6599,2.03404 14.08183,7.22346 11.39584,5.16333 15.75078,10.97861 v 0 q 4.40709,5.6588 4.40709,14.49906 v 0 q 0.13039,12.25641 -9.2575,19.97534 -9.38788,7.71892 -24.7475,7.58854 v 0 q -8.78811,0 -14.73377,-1.30388 -5.97174,-1.27779 -12.04778,-4.17239 z" />
            </svg>
          </g>
          <defs
             id="defs8" />
        </svg>
        <rect
           width="395.51999"
           height="247.2"
           fill="none"
           stroke="none"
           visibility="hidden"
           id="rect9"
           style="stroke-width:0.396469;stroke-dasharray:none;paint-order:stroke markers fill"
           x="0"
           y="0" />
      </g>
    </svg>
  </g>
</svg>
